<svg width="160" height="66" viewBox="0 0 160 66" fill="none" xmlns="http://www.w3.org/2000/svg">
<path d="M13.2 25H1.2V24.38L3.08 22.9V10.78L1 10.08L1.4 9.28H7.48V9.9L5.58 11.38V24.1H10.74L13.68 19.76L14.28 19.96V25.36L13.2 25ZM22.3636 25H16.7836V24.38L18.5636 22.98V17.14L16.7836 15.9V15.28L20.2036 14H20.9636V23.5L22.7636 24.2L22.3636 25ZM19.6836 8C20.0836 8 20.4103 8.14667 20.6636 8.44C20.9303 8.73333 21.0636 9.1 21.0636 9.54C21.0636 9.84667 20.9703 10.14 20.7836 10.42C20.5969 10.6867 20.3636 10.9 20.0836 11.06C19.8036 11.22 19.5303 11.3 19.2636 11.3C18.8636 11.3 18.5303 11.1533 18.2636 10.86C18.0103 10.5667 17.8836 10.2 17.8836 9.76C17.8836 9.45333 17.9769 9.16667 18.1636 8.9C18.3503 8.62 18.5836 8.4 18.8636 8.24C19.1436 8.08 19.4169 8 19.6836 8ZM33.317 15.76C33.6904 16.2933 33.877 16.8933 33.877 17.56C33.877 18.1467 33.7104 18.7267 33.377 19.3C33.0437 19.86 32.597 20.3533 32.037 20.78C31.477 21.2067 30.8637 21.5267 30.197 21.74C29.837 22.1 29.657 22.48 29.657 22.88C29.657 23.1067 29.8304 23.32 30.177 23.52C30.537 23.7067 31.0637 23.9333 31.757 24.2C32.7037 24.5733 33.4304 24.9133 33.937 25.22C34.457 25.54 34.717 25.9267 34.717 26.38C34.717 26.78 34.457 27.2933 33.937 27.92C33.4304 28.5467 32.797 29.0933 32.037 29.56C31.277 30.0267 30.5437 30.26 29.837 30.26C29.0904 30.26 28.2037 30.1333 27.177 29.88C26.1637 29.6267 25.317 29.3733 24.637 29.12V26.04H25.397C26.1437 26.96 26.9037 27.66 27.677 28.14C28.4504 28.62 29.3237 28.86 30.297 28.86C30.657 28.86 30.9837 28.7867 31.277 28.64C31.5837 28.4933 31.817 28.3067 31.977 28.08C32.1504 27.8667 32.237 27.66 32.237 27.46C32.237 27.1 32.0304 26.7867 31.617 26.52C31.2037 26.2667 30.557 25.9533 29.677 25.58C28.837 25.2333 28.2104 24.9333 27.797 24.68C27.397 24.4267 27.197 24.1333 27.197 23.8C27.197 23.48 27.4104 23.1533 27.837 22.82C28.2637 22.4867 28.7704 22.1933 29.357 21.94C29.1437 21.98 28.9237 22 28.697 22C27.9904 22 27.3437 21.8467 26.757 21.54C26.1704 21.22 25.7037 20.8 25.357 20.28C25.0237 19.76 24.857 19.1933 24.857 18.58C24.857 17.8467 25.1104 17.14 25.617 16.46C26.1237 15.78 26.777 15.2333 27.577 14.82C28.3904 14.3933 29.217 14.18 30.057 14.18C30.9904 14.18 31.8104 14.4467 32.517 14.98H35.657L35.677 15.76H33.317ZM29.857 20.28C30.457 20.28 30.9104 20.1333 31.217 19.84C31.537 19.5333 31.697 19.0867 31.697 18.5C31.697 17.7 31.437 17.0533 30.917 16.56C30.4104 16.0667 29.737 15.82 28.897 15.82C28.3104 15.82 27.857 15.9667 27.537 16.26C27.2304 16.54 27.077 16.9733 27.077 17.56C27.077 18.3733 27.3304 19.0333 27.837 19.54C28.357 20.0333 29.0304 20.28 29.857 20.28ZM49.33 25H45.53V18.26C45.53 17.5267 45.4167 17.0133 45.19 16.72C44.9633 16.4267 44.5567 16.28 43.97 16.28C43.53 16.28 43.09 16.36 42.65 16.52C42.2233 16.68 41.7167 16.9867 41.13 17.44V23.5L42.93 24.2L42.53 25H36.95V24.38L38.73 22.98V10.68L36.95 9.44V8.82L40.37 7.54H41.13V16.5L43.87 14.34C44.15 14.2333 44.5167 14.18 44.97 14.18C45.8767 14.18 46.5967 14.46 47.13 15.02C47.6633 15.5667 47.93 16.3133 47.93 17.26V23.5L49.73 24.2L49.33 25ZM57.0344 25.04C56.7277 25.1467 56.3544 25.2 55.9144 25.2C54.8077 25.2 53.9944 24.9133 53.4744 24.34C52.9677 23.7533 52.7144 22.8533 52.7144 21.64V15.8H50.5544V14.98L54.3544 10.56H55.1144V14.98H58.7144V15.8H55.1144V21.88C55.1144 22.96 55.6344 23.5 56.6744 23.5C56.9544 23.5 57.221 23.44 57.4744 23.32C57.741 23.2 58.0677 22.9867 58.4544 22.68L59.0544 23.44L57.0344 25.04ZM76.6014 25L76.4414 24.48C76.0281 24.04 75.6414 23.6467 75.2814 23.3C74.9214 22.9533 74.5547 22.6133 74.1814 22.28C73.8214 21.9467 73.4347 21.5933 73.0214 21.22C72.6214 20.8333 72.1681 20.4 71.6614 19.92C71.1547 19.4267 70.5814 18.8467 69.9414 18.18C69.3281 17.5533 68.8814 16.94 68.6014 16.34C68.3214 15.74 68.1814 15.18 68.1814 14.66C68.1814 13.98 68.3547 13.4267 68.7014 13C69.0481 12.5733 69.5081 12.26 70.0814 12.06C70.6681 11.86 71.3081 11.76 72.0014 11.76C72.3747 11.76 72.7747 11.8 73.2014 11.88C73.6281 11.9467 74.0214 12.0267 74.3814 12.12C74.7547 12.2133 75.0347 12.3 75.2214 12.38L74.9614 15.28L73.8014 15.22L73.8414 14.32C73.8414 14.24 73.8214 14.1 73.7814 13.9C73.7414 13.7 73.6881 13.4733 73.6214 13.22C73.5681 12.9667 73.5081 12.7467 73.4414 12.56L74.4814 13.66C74.0814 13.4867 73.6814 13.3333 73.2814 13.2C72.8814 13.0533 72.4881 12.98 72.1014 12.98C71.6081 12.98 71.2014 13.1333 70.8814 13.44C70.5614 13.7467 70.4014 14.1467 70.4014 14.64C70.4014 15.0533 70.4881 15.4533 70.6614 15.84C70.8481 16.2267 71.1214 16.6133 71.4814 17C72.2681 17.8533 73.1547 18.7533 74.1414 19.7C75.1281 20.6467 76.1947 21.66 77.3414 22.74L78.6214 23.7L80.0214 23.8L79.8814 25H76.6014ZM71.4214 25.2C70.5681 25.2 69.7881 25.0533 69.0814 24.76C68.3881 24.4533 67.8347 24.0133 67.4214 23.44C67.0081 22.8533 66.8014 22.14 66.8014 21.3C66.8014 20.3 67.0947 19.46 67.6814 18.78C68.2681 18.1 69.0814 17.5133 70.1214 17.02L70.8014 18.12C70.1347 18.5467 69.6681 19.02 69.4014 19.54C69.1481 20.0467 69.0214 20.5667 69.0214 21.1C69.0214 21.6333 69.1347 22.1 69.3614 22.5C69.5881 22.8867 69.9014 23.1933 70.3014 23.42C70.7147 23.6467 71.1681 23.76 71.6614 23.76C72.6081 23.76 73.3881 23.5667 74.0014 23.18C74.6281 22.78 75.0947 22.2533 75.4014 21.6C75.7081 20.9333 75.8614 20.2 75.8614 19.4C75.8614 19.28 75.8481 19.1333 75.8214 18.96C75.8081 18.7867 75.7881 18.6267 75.7614 18.48C75.7481 18.32 75.7281 18.2 75.7014 18.12H77.5214C77.5214 18.1867 77.5081 18.2733 77.4814 18.38C77.4681 18.4867 77.4547 18.64 77.4414 18.84C77.4281 19.04 77.4147 19.3133 77.4014 19.66C77.3614 20.74 77.0947 21.7 76.6014 22.54C76.1081 23.3667 75.4214 24.02 74.5414 24.5C73.6614 24.9667 72.6214 25.2 71.4214 25.2ZM75.8614 18.3L74.3214 18.06L74.4214 16.92C74.7947 16.9333 75.1614 16.9533 75.5214 16.98C75.8814 17.0067 76.2147 17.02 76.5214 17.02C76.9081 17.02 77.3081 17.0133 77.7214 17C78.1347 16.9733 78.5281 16.9467 78.9014 16.92L78.9814 18.18L77.4414 18.3H75.8614ZM99.0594 25H87.0594V24.38L88.9394 22.9V10.78L86.8594 10.08L87.2594 9.28H93.3394V9.9L91.4394 11.38V24.1H96.5994L99.5394 19.76L100.139 19.96V25.36L99.0594 25ZM108.223 25H102.643V24.38L104.423 22.98V17.14L102.643 15.9V15.28L106.063 14H106.823V23.5L108.623 24.2L108.223 25ZM105.543 8C105.943 8 106.27 8.14667 106.523 8.44C106.79 8.73333 106.923 9.1 106.923 9.54C106.923 9.84667 106.83 10.14 106.643 10.42C106.456 10.6867 106.223 10.9 105.943 11.06C105.663 11.22 105.39 11.3 105.123 11.3C104.723 11.3 104.39 11.1533 104.123 10.86C103.87 10.5667 103.743 10.2 103.743 9.76C103.743 9.45333 103.836 9.16667 104.023 8.9C104.21 8.62 104.443 8.4 104.723 8.24C105.003 8.08 105.276 8 105.543 8ZM117.616 7.34C117.99 7.34 118.41 7.38 118.876 7.46C119.356 7.52667 119.696 7.6 119.896 7.68V10.76H119.136C118.803 10.2267 118.396 9.80667 117.916 9.5C117.436 9.18 116.95 9.02 116.456 9.02C115.843 9.02 115.376 9.29333 115.056 9.84C114.75 10.3867 114.596 11.1867 114.596 12.24V14.98H118.196V15.8H114.596V23.34L117.396 24.2L116.996 25H110.416V24.38L112.196 22.98V15.8H109.816V14.98H112.196V13.2C112.196 12.1733 112.476 11.2067 113.036 10.3C113.596 9.39333 114.296 8.67333 115.136 8.14C115.99 7.60667 116.816 7.34 117.616 7.34ZM125.83 25.04C125.297 25.1467 124.657 25.2 123.91 25.2C123.03 25.2 122.237 24.9733 121.53 24.52C120.837 24.0533 120.29 23.4267 119.89 22.64C119.503 21.8533 119.31 20.9867 119.31 20.04C119.31 19.0133 119.623 18.0533 120.25 17.16C120.877 16.2533 121.657 15.5333 122.59 15C123.537 14.4533 124.45 14.18 125.33 14.18C126.597 14.18 127.577 14.68 128.27 15.68C128.977 16.68 129.33 18 129.33 19.64H121.93C122.01 20.7733 122.317 21.7 122.85 22.42C123.397 23.14 124.137 23.5 125.07 23.5C125.937 23.5 127.17 22.8267 128.77 21.48L129.37 22.24L125.83 25.04ZM124.17 15.86C122.73 15.86 121.977 16.8467 121.91 18.82H126.59C126.47 18.1 126.343 17.5533 126.21 17.18C126.09 16.7933 125.87 16.48 125.55 16.24C125.243 15.9867 124.783 15.86 124.17 15.86Z" fill="#1E1E1E" fill-opacity="0.86"/>
</svg>
