<svg width="963" height="153" viewBox="0 0 963 153" fill="none" xmlns="http://www.w3.org/2000/svg">
<path d="M1 76.0609C27.5 76.8943 83.5 76.2609 95.5 67.0609C110.5 55.5609 137 29.0609 155 39.5609C173 50.0609 233.5 98.5609 263 92.0609C292.5 85.5609 309 76.0609 299.5 60.5609C290 45.0609 281.246 62.5137 282.5 67.0609C284 72.5 289.5 81.0609 312.5 81.5609C335.5 82.0609 425.5 51.0609 445 60.5609C464.5 70.0609 474 77.5609 490.5 74.5609C507 71.5609 543 74.5609 559 74.5609C575 74.5609 568 56.5609 584 54.0609C600 51.5609 606.5 83.5609 628 79.0609C637.794 77.011 640.487 70.4326 640.16 63.6091C639.69 53.8221 632.938 45.2929 624.34 40.5948C616.999 36.5838 608.279 34.7592 601.5 41.0609C587.515 54.0609 581.5 45.561 584 88.061C586.5 130.561 647 113.061 652 91.561C657 70.061 666 62.561 639 37.061C612 11.561 576 43 573.5 46.061C571.286 48.7717 559 65.5609 569.5 88.061C580 110.561 590 114.061 599 115.561C608 117.061 624.579 113.061 639 99.561C653.421 86.061 663 93.0608 669 79.0609C675 65.061 656 29.061 639 21.061C622 13.061 620 5.06103 593 18.561C566 32.061 569.5 33 559 49.5609C549.254 64.932 566.395 113.095 576 120.561C585.789 128.17 590.506 136.229 622.835 127.051C635.988 123.317 647.689 115.83 658.284 107.187C666.079 100.827 674.364 94.4641 679.5 91.561C689.144 86.1102 693.162 68.0007 671.502 37.5277C662.155 24.3774 648.78 14.2106 633.789 8.24653C622.886 3.90866 608.532 0.497191 584 1.06113C549.2 1.86113 540.167 44.7277 540 66.061C538 80.561 542.4 115.661 576 140.061C587.312 148.276 597.619 151.734 606.628 152.255C633.338 153.801 658.555 131.717 675.893 111.34C679.933 106.593 683.884 101.031 687.5 94.561C695.031 81.0842 703.61 74.4157 711.302 71.5633C723.193 67.1536 736.449 72.1945 749.091 73.2C771.73 75.0003 800.211 76.7733 809 75.561C820.6 73.961 916.167 74.8944 962.5 75.561" stroke="#006400"/>
</svg>
