<svg width="614" height="644" viewBox="0 0 614 644" fill="none" xmlns="http://www.w3.org/2000/svg">
<path d="M487.311 0C466.478 40.3333 423.811 137.1 419.811 201.5C414.811 282 530.311 265 561.311 184C592.311 103 435.811 88.5 364.811 145C293.811 201.5 279.311 269 292.311 338.5C305.311 408 442.311 506.5 543.811 480.5C645.311 454.5 632.811 306 521.311 311C432.111 315 390.811 522.5 419.811 625.5C434.311 646 479.411 665.4 543.811 579C624.311 471 327.811 498.5 235.811 501.5C143.811 504.5 -42.6888 603 10.3112 480.5C52.7112 382.5 99.9778 392.333 118.311 409.5" stroke="#006400" stroke-width="1.5"/>
</svg>
